<svg width="26" height="29" viewBox="0 0 26 29" fill="none" xmlns="http://www.w3.org/2000/svg">
<path d="M21.5792 22H4.40551M12.9923 22V14.5M16.6724 22V17M9.31227 22V17M21.5792 27V13.6625C22.0347 13.4933 22.4529 13.2342 22.8099 12.8999C23.1668 12.5656 23.4554 12.1627 23.6592 11.7144C23.8629 11.2662 23.9777 10.7813 23.9971 10.2877C24.0164 9.79405 23.9399 9.30139 23.7719 8.83799C23.6039 8.37459 23.3477 7.94957 23.018 7.58733C22.6884 7.22509 22.2918 6.93276 21.851 6.72714C21.4101 6.52152 20.9338 6.40664 20.4493 6.38911C19.9648 6.37159 19.4817 6.45175 19.0277 6.625C18.5738 4.3425 16.01 2 12.9923 2C9.97469 2 7.4109 4.3425 6.95703 6.625C6.0412 6.28022 5.02847 6.32028 4.14163 6.73638C3.25479 7.15248 2.56648 7.91052 2.22813 8.84375C1.88978 9.77698 1.92909 10.809 2.33743 11.7126C2.74577 12.6163 3.48968 13.3177 4.40551 13.6625V27H21.5792Z" stroke="#333333" stroke-width="3"/>
</svg>
