<svg width="28" height="28" viewBox="0 0 28 28" fill="none" xmlns="http://www.w3.org/2000/svg">
<path d="M18.5 27.5C15.55 27.5 12.925 26.6625 10.625 24.9875C8.325 23.3125 6.7 21.15 5.75 18.5H0.5V15.5H5.075C5.025 15.225 5 14.975 5 14.75V13.25C5 13.025 5.025 12.775 5.075 12.5H0.5V9.5H5.75C6.7 6.85 8.325 4.6875 10.625 3.0125C12.925 1.3375 15.55 0.5 18.5 0.5C20.225 0.5 21.8565 0.8 23.3945 1.4C24.9325 2 26.301 2.85 27.5 3.95L24.875 6.575C24 5.85 23.0185 5.2815 21.9305 4.8695C20.8425 4.4575 19.699 4.251 18.5 4.25C16.625 4.25 14.919 4.7315 13.382 5.6945C11.845 6.6575 10.676 7.926 9.875 9.5H18.5V12.5H8.9C8.85 12.775 8.8125 13.025 8.7875 13.25C8.7625 13.475 8.75 13.725 8.75 14C8.75 14.275 8.7625 14.525 8.7875 14.75C8.8125 14.975 8.85 15.225 8.9 15.5H18.5V18.5H9.875C10.675 20.075 11.844 21.344 13.382 22.307C14.92 23.27 16.626 23.751 18.5 23.75C19.7 23.75 20.8565 23.5435 21.9695 23.1305C23.0825 22.7175 24.051 22.149 24.875 21.425L27.5 24.05C26.3 25.15 24.931 26 23.393 26.6C21.855 27.2 20.224 27.5 18.5 27.5Z" fill="#333333"/>
</svg>
