<svg width="36" height="36" viewBox="0 0 36 36" fill="none" xmlns="http://www.w3.org/2000/svg">
<path d="M34 0H2C0.895431 0 0 0.895431 0 2V9C0 10.1046 0.89543 11 2 11H3.64488C4.46321 11 5.199 10.5015 5.50237 9.74144L6.63354 6.90755C7.30142 5.23434 8.8178 4.0498 10.6029 3.80682L17.3257 2.89178C17.7732 2.83088 18.2268 2.83088 18.6743 2.89178L25.3971 3.80682C27.1822 4.0498 28.6986 5.23434 29.3665 6.90755L30.4976 9.74144C30.801 10.5015 31.5368 11 32.3551 11H34C35.1046 11 36 10.1046 36 9V2C36 0.895431 35.1046 0 34 0Z" fill="#F8C55E"/>
<path d="M2 36H34C35.1046 36 36 35.1046 36 34V28C36 26.8954 35.1046 26 34 26H31.8667C31.3537 26 30.9028 26.3401 30.7619 26.8333C30.0572 29.2996 27.803 31 25.238 31H10.762C8.19698 31 5.94275 29.2996 5.2381 26.8333C5.09716 26.3401 4.64632 26 4.13332 26H2C0.895432 26 0 26.8954 0 28V34C0 35.1046 0.895432 36 2 36Z" fill="#F8C55E"/>
<path d="M3 15.5C3 14.6716 3.67157 14 4.5 14H31.5C32.3284 14 33 14.6716 33 15.5V15.5C33 16.3284 32.3284 17 31.5 17H4.5C3.67157 17 3 16.3284 3 15.5V15.5Z" fill="#F8C55E"/>
<path d="M3 21.5C3 20.6716 3.67157 20 4.5 20H31.5C32.3284 20 33 20.6716 33 21.5V21.5C33 22.3284 32.3284 23 31.5 23H4.5C3.67157 23 3 22.3284 3 21.5V21.5Z" fill="#C73B0C"/>
</svg>
