<svg width="32" height="22" viewBox="0 0 32 22" fill="none" xmlns="http://www.w3.org/2000/svg">
<path d="M0 11C0 9.89543 0.895431 9 2 9H30C31.1046 9 32 9.89543 32 11V11C32 12.1046 31.1046 13 30 13H2C0.895431 13 0 12.1046 0 11V11Z" fill="#C73B0C"/>
<path d="M0 20C0 18.8954 0.895431 18 2 18H30C31.1046 18 32 18.8954 32 20V20C32 21.1046 31.1046 22 30 22H2C0.895431 22 0 21.1046 0 20V20Z" fill="#F8C55E"/>
<path d="M0 2C0 0.895431 0.895431 0 2 0H30C31.1046 0 32 0.895431 32 2V2C32 3.10457 31.1046 4 30 4H2C0.895431 4 0 3.10457 0 2V2Z" fill="#F8C55E"/>
</svg>
