<svg width="28" height="28" viewBox="0 0 28 28" fill="none" xmlns="http://www.w3.org/2000/svg">
<path d="M18.1688 7.98545C17.1232 8.66135 15.7336 8.36296 15.0577 7.3174C14.8215 6.95209 14.715 6.53868 14.7041 6.13494L3.21242 0.239187C2.64377 1.32125 2.16622 2.43372 1.74643 3.5803C1.93203 3.68682 2.08964 3.83593 2.20628 4.01534C2.65417 4.70818 2.45375 5.6415 1.76091 6.08938C1.50897 6.25225 1.21708 6.29805 0.934092 6.30238C0.0463091 9.97822 -0.0460024 13.8013 0.663336 17.5157C2.03259 16.8985 3.68216 17.3503 4.49649 18.61C4.92844 19.2782 5.07727 20.0906 4.91022 20.8685C4.74318 21.6465 4.27395 22.3262 3.60576 22.7581C3.25304 22.9861 2.86406 23.1304 2.4803 23.1999C3.01686 24.3891 3.64085 25.5754 4.38189 26.7217C4.52033 26.9359 4.65063 27.1374 4.82685 27.3271L12.4103 22.4248C12.0946 21.6195 12.0671 20.7297 12.3324 19.9064C12.5976 19.0831 13.1394 18.3767 13.8658 17.9071C14.5923 17.4375 15.4587 17.2335 16.3184 17.3296C17.1781 17.4257 17.978 17.8161 18.5828 18.4346L27.4637 12.6935L18.2191 7.95288L18.1688 7.98545ZM5.01826 11.1282C4.58631 10.46 4.43749 9.6476 4.60453 8.86968C4.77158 8.09177 5.24081 7.41207 5.909 6.98012C6.57718 6.54817 7.3896 6.39934 8.16751 6.56639C8.94543 6.73344 9.62513 7.20266 10.0571 7.87085C10.961 9.26913 10.5646 11.115 9.16634 12.0189C7.76807 12.9228 5.91403 12.5139 5.01826 11.1282ZM17.9079 11.7264C18.3558 12.4192 18.1553 13.3525 17.4625 13.8004C16.7697 14.2483 15.8364 14.0479 15.3885 13.355C14.9406 12.6622 15.141 11.7289 15.8338 11.281C16.5267 10.8331 17.46 11.0335 17.9079 11.7264ZM10.3496 16.6124C10.7975 17.3052 10.5971 18.2385 9.90428 18.6864C9.21144 19.1343 8.27812 18.9339 7.83024 18.2411C7.38235 17.5482 7.58277 16.6149 8.27561 16.167C8.96844 15.7191 9.90176 15.9195 10.3496 16.6124Z" fill="#FFDE6A"/>
</svg>
