<svg width="29" height="28" viewBox="0 0 29 28" fill="none" xmlns="http://www.w3.org/2000/svg">
<path d="M10.259 20.2191C11.3045 19.5432 12.6941 19.8416 13.37 20.8872C13.6062 21.2525 13.7127 21.6659 13.7236 22.0697L25.2153 27.9654C25.784 26.8833 26.2615 25.7709 26.6813 24.6243C26.4957 24.5178 26.3381 24.3687 26.2215 24.1892C25.7736 23.4964 25.974 22.5631 26.6668 22.1152C26.9188 21.9523 27.2107 21.9065 27.4936 21.9022C28.3814 18.2264 28.4737 14.4033 27.7644 10.6889C26.3951 11.3061 24.7456 10.8543 23.9312 9.59456C23.4993 8.92637 23.3505 8.11396 23.5175 7.33604C23.6846 6.55813 24.1538 5.87843 24.822 5.44648C25.1747 5.21846 25.5637 5.07417 25.9474 5.0047C25.4109 3.81549 24.7869 2.62921 24.0458 1.48288C23.9074 1.26873 23.7771 1.06718 23.6009 0.877457L16.0175 5.77976C16.3331 6.58513 16.3606 7.47486 16.0954 8.2982C15.8301 9.12153 15.2883 9.82785 14.5619 10.2975C13.8355 10.7671 12.969 10.9711 12.1093 10.875C11.2497 10.7788 10.4497 10.3885 9.84491 9.77001L0.963988 15.5111L10.2086 20.2517L10.259 20.2191ZM23.4095 17.0764C23.8414 17.7446 23.9902 18.557 23.8232 19.3349C23.6562 20.1128 23.1869 20.7925 22.5187 21.2245C21.8505 21.6564 21.0381 21.8052 20.2602 21.6382C19.4823 21.4712 18.8026 21.0019 18.3707 20.3337C17.4667 18.9355 17.8631 17.0896 19.2614 16.1857C20.6597 15.2817 22.5137 15.6907 23.4095 17.0764ZM10.5199 16.4782C10.072 15.7854 10.2724 14.8521 10.9652 14.4042C11.6581 13.9563 12.5914 14.1567 13.0393 14.8495C13.4872 15.5424 13.2867 16.4757 12.5939 16.9236C11.9011 17.3715 10.9677 17.1711 10.5199 16.4782ZM18.0781 11.5922C17.6302 10.8994 17.8306 9.96605 18.5235 9.51816C19.2163 9.07028 20.1496 9.27069 20.5975 9.96353C21.0454 10.6564 20.845 11.5897 20.1521 12.0376C19.4593 12.4855 18.526 12.285 18.0781 11.5922Z" fill="#FFDE6A"/>
</svg>
