<svg width="30" height="30" viewBox="0 0 30 30" fill="none" xmlns="http://www.w3.org/2000/svg">
<path d="M25.5 3C25.5 1.35 24.15 0 22.5 0H18V3H22.5V6.975L17.25 13.5H12V6H6C2.685 6 0 8.685 0 12V16.5H3C3 18.99 5.01 21 7.5 21C9.99 21 12 18.99 12 16.5H18.75L25.5 8.025V3ZM3 13.5V12C3 10.35 4.35 9 6 9H9V13.5H3ZM7.5 18C6.675 18 6 17.325 6 16.5H9C9 17.325 8.325 18 7.5 18ZM4.5 1.5H12V4.5H4.5V1.5ZM25.5 12C23.01 12 21 14.01 21 16.5C21 18.99 23.01 21 25.5 21C27.99 21 30 18.99 30 16.5C30 14.01 27.99 12 25.5 12ZM25.5 18C24.675 18 24 17.325 24 16.5C24 15.675 24.675 15 25.5 15C26.325 15 27 15.675 27 16.5C27 17.325 26.325 18 25.5 18ZM7.5 25.5H13.5V22.5L22.5 27H16.5V30L7.5 25.5Z" fill="#333333"/>
</svg>
