<svg width="130" height="130" viewBox="0 0 130 130" fill="none" xmlns="http://www.w3.org/2000/svg">
<g clip-path="url(#clip0_57_43)">
<path d="M130.001 65.398C130.001 29.2742 100.897 -0.00830078 65.0006 -0.00830078C29.0881 -0.000175781 -0.015625 29.2742 -0.015625 65.4061C-0.015625 98.0442 23.7581 125.1 54.8281 130.008V84.3048H38.3344V65.4061H54.8444V50.9842C54.8444 34.5961 64.5538 25.5448 79.3981 25.5448C86.5156 25.5448 93.95 26.8204 93.95 26.8204V42.9079H85.7519C77.6837 42.9079 75.165 47.9536 75.165 53.1292V65.398H93.1862L90.31 84.2967H75.1569V130C106.227 125.092 130.001 98.0361 130.001 65.398Z" fill="#FFDE6A"/>
</g>
<defs>
<clipPath id="clip0_57_43">
<rect width="130" height="130" fill="white"/>
</clipPath>
</defs>
</svg>
