<svg width="130" height="130" viewBox="0 0 130 130" fill="none" xmlns="http://www.w3.org/2000/svg">
<path d="M65.0007 43.3335C59.2543 43.3335 53.7433 45.6162 49.68 49.6795C45.6167 53.7428 43.334 59.2538 43.334 65.0002C43.334 70.7465 45.6167 76.2575 49.68 80.3208C53.7433 84.3841 59.2543 86.6668 65.0007 86.6668C70.747 86.6668 76.258 84.3841 80.3213 80.3208C84.3846 76.2575 86.6673 70.7465 86.6673 65.0002C86.6673 59.2538 84.3846 53.7428 80.3213 49.6795C76.258 45.6162 70.747 43.3335 65.0007 43.3335Z" fill="#FFDE6A"/>
<path fill-rule="evenodd" clip-rule="evenodd" d="M39 0C28.6566 0 18.7368 4.10892 11.4228 11.4228C4.10892 18.7368 0 28.6566 0 39L0 91C0 101.343 4.10892 111.263 11.4228 118.577C18.7368 125.891 28.6566 130 39 130H91C101.343 130 111.263 125.891 118.577 118.577C125.891 111.263 130 101.343 130 91V39C130 28.6566 125.891 18.7368 118.577 11.4228C111.263 4.10892 101.343 0 91 0L39 0ZM34.6667 65C34.6667 56.9551 37.8625 49.2397 43.5511 43.5511C49.2397 37.8625 56.9551 34.6667 65 34.6667C73.0449 34.6667 80.7603 37.8625 86.4489 43.5511C92.1375 49.2397 95.3333 56.9551 95.3333 65C95.3333 73.0449 92.1375 80.7603 86.4489 86.4489C80.7603 92.1375 73.0449 95.3333 65 95.3333C56.9551 95.3333 49.2397 92.1375 43.5511 86.4489C37.8625 80.7603 34.6667 73.0449 34.6667 65ZM95.3333 34.6667H104V26H95.3333V34.6667Z" fill="#FFDE6A"/>
</svg>
