<svg width="130" height="130" viewBox="0 0 130 130" fill="none" xmlns="http://www.w3.org/2000/svg">
<g clip-path="url(#clip0_116_4)">
<path d="M65.0913 0C29.2275 0 0.15625 29.0713 0.15625 64.9296C0.15625 92.4408 17.2621 115.938 41.4204 125.39C40.8517 120.25 40.3425 112.374 41.6425 106.762C42.8288 101.687 49.2583 74.4954 49.2583 74.4954C49.2583 74.4954 47.3137 70.5954 47.3137 64.8483C47.3137 55.8404 52.5517 49.0804 59.0571 49.0804C64.6038 49.0804 67.2796 53.2458 67.2796 58.2237C67.2796 63.7975 63.7425 72.1283 61.9063 79.8471C60.3625 86.3092 65.1563 91.5742 71.5208 91.5742C83.0475 91.5742 91.9308 79.4137 91.9308 61.8529C91.9308 46.3558 80.7563 35.4792 64.8042 35.4792C46.3333 35.4792 35.5054 49.3567 35.5054 63.6404C35.5054 69.2358 37.6396 75.2483 40.3208 78.4875C40.8571 79.1375 40.9275 79.7062 40.7813 80.3562C40.2938 82.3875 39.1942 86.8508 38.9721 87.7392C38.685 88.9579 38.0404 89.2071 36.8 88.6329C28.7021 84.8954 23.6213 73.0437 23.6213 63.4671C23.6213 43.0137 38.5063 24.1854 66.5213 24.1854C89.0438 24.1854 106.561 40.2567 106.561 61.685C106.561 84.0829 92.44 102.104 72.7992 102.104C66.2233 102.104 60.0483 98.6971 57.86 94.6346L53.8029 110.061C52.3458 115.722 48.3646 122.801 45.6888 127.102C51.7717 128.971 58.1796 130 64.9179 130C100.706 130 129.837 100.94 129.837 65.0704C129.837 29.1958 100.706 0.140833 64.9179 0.140833L65.0913 0Z" fill="#FFDE6A"/>
</g>
<defs>
<clipPath id="clip0_116_4">
<rect width="130" height="130" fill="white"/>
</clipPath>
</defs>
</svg>
