<svg width="130" height="130" viewBox="0 0 130 130" fill="none" xmlns="http://www.w3.org/2000/svg">
<path fill-rule="evenodd" clip-rule="evenodd" d="M130 18.3563C130 8.21844 121.782 0 111.644 0H18.3563C8.21844 0 0 8.21844 0 18.3563V111.644C0 121.782 8.21844 130 18.3563 130H111.644C121.782 130 130 121.782 130 111.644V18.3563ZM107.698 56.6988C99.3109 56.7926 91.4955 54.257 84.6334 49.5607V82.5277C84.6334 97.1797 74.6039 109.766 60.4216 113.053C41.073 117.467 24.6937 103.473 22.6278 86.7548C20.4675 70.0362 31.1301 55.3841 47.4728 52.0967C50.666 51.4394 55.4692 51.4394 57.9472 52.0029V69.6603C57.1847 69.473 56.4707 69.285 55.7195 69.191C49.3326 68.0638 43.1467 71.2572 40.6107 77.0804C38.0749 82.9041 39.7722 89.6662 44.9379 93.6115C49.2581 96.9925 54.0517 97.4618 58.9357 95.2076C63.8199 93.0478 66.4448 89.103 67.008 83.7494C67.1019 82.9983 67.0967 82.1527 67.0967 81.3074V17.9085C67.0967 16.1241 67.1107 16.2019 68.8953 16.2019H82.8898C83.9233 16.2019 84.2991 16.3506 84.3929 17.5723C85.1438 28.4674 93.4159 37.7461 104.029 39.1552C105.156 39.3429 106.364 39.4173 107.698 39.5111V56.6988Z" fill="#C73B0C"/>
</svg>
